# xmcd CD database file
#
# Track frame offsets:
#	150
#	43167
#	94552
#	119690
#	146475
#	178542
#	205617
#	238950
#	267177
#
# Disc length: 4078 seconds
#
# Revision: 0
# Processed by: cddbd v1.4PL0 Copyright (c) Steve Scherf et al.
# Submitted via: CDex 1.50beta9
#
DISCID=7f0fec09
DTITLE=Art Pepper - The Hollywood All-Star Sessions Disc 4
DYEAR=1980
DGENRE=Jazz
TTITLE0=Atlas blues
TTITLE1=Lester leaps in
TTITLE2=My funny valentine
TTITLE3=Imagination
TTITLE4=Just Friends
TTITLE5=These Foolish Things
TTITLE6=Hollywood jam blues
TTITLE7=Lover, come back to me
TTITLE8=Limehouse blues
EXTD=YEAR: 1980
EXTT0=
EXTT1=
EXTT2=
EXTT3=
EXTT4=
EXTT5=
EXTT6=
EXTT7=
EXTT8=
PLAYORDER=
